<?xml version="1.0" encoding="UTF-8"?>
<svg width="200px" height="200px" viewBox="0 0 200 200" version="1.1" xmlns="http://www.w3.org/2000/svg" xmlns:xlink="http://www.w3.org/1999/xlink">
    <title>Soldado</title>
    <g stroke="none" stroke-width="1" fill="none" fill-rule="evenodd">
        <circle fill="#003366" cx="100" cy="100" r="95"></circle>
        <path d="M100,20 C44.8,20 0,64.8 0,120 C0,175.2 44.8,220 100,220 C155.2,220 200,175.2 200,120 C200,64.8 155.2,20 100,20 Z M100,200 C55.8,200 20,164.2 20,120 C20,75.8 55.8,40 100,40 C144.2,40 180,75.8 180,120 C180,164.2 144.2,200 100,200 Z" fill="#D4AF37" fill-rule="nonzero"></path>
        <path d="M70,100 L130,100" stroke="#D4AF37" stroke-width="10" stroke-linecap="round"></path>
    </g>
</svg>